<svg width="205" height="74" viewBox="0 0 205 74" fill="none" xmlns="http://www.w3.org/2000/svg">
<path d="M66.9154 32.6258C67.4694 31.846 68.2287 31.1996 69.1932 30.6865C70.1782 30.153 71.2966 29.8862 72.5484 29.8862C74.0054 29.8862 75.3187 30.2453 76.4884 30.9636C77.6786 31.6818 78.6123 32.7079 79.2895 34.0417C79.9872 35.3551 80.3361 36.8839 80.3361 38.6282C80.3361 40.3724 79.9872 41.9218 79.2895 43.2762C78.6123 44.61 77.6786 45.6463 76.4884 46.3851C75.3187 47.1238 74.0054 47.4932 72.5484 47.4932C71.2966 47.4932 70.1885 47.2367 69.224 46.7237C68.28 46.2107 67.5105 45.5642 66.9154 44.7845V55.3425H62.606V30.1633H66.9154V32.6258ZM75.9343 38.6282C75.9343 37.6021 75.7189 36.7197 75.2879 35.981C74.8775 35.2217 74.3234 34.6471 73.6257 34.2572C72.9485 33.8673 72.2098 33.6724 71.4094 33.6724C70.6297 33.6724 69.8909 33.8776 69.1932 34.288C68.516 34.6779 67.9619 35.2525 67.531 36.0117C67.1206 36.771 66.9154 37.6637 66.9154 38.6897C66.9154 39.7158 67.1206 40.6084 67.531 41.3677C67.9619 42.127 68.516 42.7118 69.1932 43.1223C69.8909 43.5122 70.6297 43.7071 71.4094 43.7071C72.2098 43.7071 72.9485 43.5019 73.6257 43.0915C74.3234 42.6811 74.8775 42.0962 75.2879 41.3369C75.7189 40.5777 75.9343 39.6747 75.9343 38.6282Z" fill="#20272F"/>
<path d="M56.2253 28.1318C55.4661 28.1318 54.8299 27.8958 54.3169 27.4238C53.8244 26.9313 53.5781 26.3259 53.5781 25.6077C53.5781 24.8895 53.8244 24.2944 54.3169 23.8224C54.8299 23.3299 55.4661 23.0836 56.2253 23.0836C56.9846 23.0836 57.6105 23.3299 58.103 23.8224C58.616 24.2944 58.8725 24.8895 58.8725 25.6077C58.8725 26.3259 58.616 26.9313 58.103 27.4238C57.6105 27.8958 56.9846 28.1318 56.2253 28.1318ZM58.3492 30.1634V47.2163H54.0398V30.1634H58.3492Z" fill="#20272F"/>
<path d="M46.1598 47.2163L40.3729 39.9518V47.2163H36.0635V24.438H40.3729V37.397L46.0982 30.1633H51.7005L44.1898 38.7206L51.762 47.2163H46.1598Z" fill="#20272F"/>
<g clip-path="url(#clip0_778_13880)">
<path d="M16.9401 35.7238L10 31.8819C10 29.5796 11.2336 27.4608 13.2064 26.3651L26.4087 19.0577C26.7241 18.884 27.1055 19.1157 27.1055 19.4825V29.8258C27.1055 30.0043 27.0113 30.1684 26.856 30.2505L16.9401 35.7286V35.7238Z" fill="#9294EC"/>
<path d="M26.4133 52.2935L13.4794 45.3432C11.3418 44.1945 9.99995 41.926 9.99995 39.4549V31.8868C9.99995 31.8868 9.90108 30.1831 10.8616 28.6724C10.8616 28.6724 10.2165 32.0075 13.9267 34.0588L16.9354 35.7239L26.8418 41.1393C26.9972 41.2214 27.0913 41.3855 27.0913 41.5641V51.8639C27.0913 52.2259 26.7194 52.4624 26.4086 52.2935H26.4133Z" fill="url(#paint0_linear_778_13880)"/>
</g>
<path d="M93.246 44V34.2H96.27C97.2033 34.2 98.0293 34.41 98.748 34.83C99.476 35.2407 100.045 35.8147 100.456 36.552C100.867 37.2893 101.072 38.1387 101.072 39.1C101.072 40.052 100.867 40.8967 100.456 41.634C100.045 42.3713 99.476 42.95 98.748 43.37C98.0293 43.79 97.2033 44 96.27 44H93.246ZM94.618 42.712H96.27C96.746 42.712 97.1893 42.6233 97.6 42.446C98.0107 42.2593 98.37 42.0027 98.678 41.676C98.9953 41.34 99.238 40.9527 99.406 40.514C99.5833 40.0753 99.672 39.604 99.672 39.1C99.672 38.596 99.5833 38.1247 99.406 37.686C99.238 37.2473 98.9953 36.8647 98.678 36.538C98.37 36.202 98.0107 35.9453 97.6 35.768C97.1893 35.5813 96.746 35.488 96.27 35.488H94.618V42.712ZM105.698 44.168C105.016 44.168 104.414 44.014 103.892 43.706C103.369 43.3887 102.958 42.9547 102.66 42.404C102.361 41.8533 102.212 41.2187 102.212 40.5C102.212 39.7813 102.361 39.1467 102.66 38.596C102.958 38.0453 103.369 37.616 103.892 37.308C104.424 36.9907 105.03 36.832 105.712 36.832C106.356 36.832 106.92 36.9953 107.406 37.322C107.891 37.6393 108.269 38.0967 108.54 38.694C108.82 39.282 108.96 39.9773 108.96 40.78H103.304L103.556 40.57C103.556 41.0647 103.654 41.494 103.85 41.858C104.046 42.222 104.312 42.502 104.648 42.698C104.984 42.8847 105.366 42.978 105.796 42.978C106.262 42.978 106.65 42.8707 106.958 42.656C107.275 42.432 107.522 42.152 107.7 41.816L108.848 42.348C108.661 42.712 108.418 43.034 108.12 43.314C107.821 43.5847 107.466 43.7947 107.056 43.944C106.654 44.0933 106.202 44.168 105.698 44.168ZM103.64 39.94L103.374 39.73H107.798L107.546 39.94C107.546 39.5293 107.462 39.1793 107.294 38.89C107.126 38.5913 106.902 38.3673 106.622 38.218C106.342 38.0593 106.029 37.98 105.684 37.98C105.348 37.98 105.021 38.0593 104.704 38.218C104.396 38.3673 104.139 38.5867 103.934 38.876C103.738 39.1653 103.64 39.52 103.64 39.94ZM112.78 44.168C112.285 44.168 111.842 44.0933 111.45 43.944C111.067 43.7947 110.74 43.594 110.47 43.342C110.208 43.09 110.012 42.8053 109.882 42.488L111.03 41.984C111.179 42.2733 111.403 42.5113 111.702 42.698C112 42.8847 112.332 42.978 112.696 42.978C113.097 42.978 113.428 42.9033 113.69 42.754C113.951 42.6047 114.082 42.3947 114.082 42.124C114.082 41.8627 113.984 41.6573 113.788 41.508C113.592 41.3587 113.307 41.2373 112.934 41.144L112.276 40.976C111.622 40.7987 111.114 40.5327 110.75 40.178C110.395 39.8233 110.218 39.422 110.218 38.974C110.218 38.2927 110.437 37.7653 110.876 37.392C111.314 37.0187 111.963 36.832 112.822 36.832C113.242 36.832 113.624 36.8927 113.97 37.014C114.324 37.1353 114.623 37.308 114.866 37.532C115.118 37.756 115.295 38.022 115.398 38.33L114.278 38.834C114.166 38.554 113.974 38.3487 113.704 38.218C113.433 38.078 113.116 38.008 112.752 38.008C112.378 38.008 112.084 38.092 111.87 38.26C111.655 38.4187 111.548 38.6427 111.548 38.932C111.548 39.0907 111.636 39.2447 111.814 39.394C112 39.534 112.271 39.6507 112.626 39.744L113.382 39.926C113.839 40.038 114.217 40.2107 114.516 40.444C114.814 40.668 115.038 40.9247 115.188 41.214C115.337 41.494 115.412 41.788 115.412 42.096C115.412 42.516 115.295 42.8847 115.062 43.202C114.838 43.51 114.525 43.748 114.124 43.916C113.732 44.084 113.284 44.168 112.78 44.168ZM116.879 44V37H118.209V44H116.879ZM117.551 35.516C117.336 35.516 117.15 35.4367 116.991 35.278C116.832 35.11 116.753 34.9187 116.753 34.704C116.753 34.48 116.832 34.2933 116.991 34.144C117.15 33.9853 117.336 33.906 117.551 33.906C117.775 33.906 117.962 33.9853 118.111 34.144C118.27 34.2933 118.349 34.48 118.349 34.704C118.349 34.9187 118.27 35.11 118.111 35.278C117.962 35.4367 117.775 35.516 117.551 35.516ZM123.056 46.982C122.59 46.982 122.165 46.9353 121.782 46.842C121.4 46.758 121.078 46.66 120.816 46.548C120.555 46.436 120.359 46.338 120.228 46.254L120.732 45.176C120.854 45.2507 121.026 45.3347 121.25 45.428C121.474 45.5307 121.736 45.6147 122.034 45.68C122.333 45.7547 122.664 45.792 123.028 45.792C123.458 45.792 123.84 45.7033 124.176 45.526C124.512 45.358 124.774 45.092 124.96 44.728C125.156 44.364 125.254 43.8973 125.254 43.328V37H126.584V43.3C126.584 44.1027 126.43 44.7747 126.122 45.316C125.824 45.8667 125.408 46.282 124.876 46.562C124.354 46.842 123.747 46.982 123.056 46.982ZM122.93 43.902C122.296 43.902 121.74 43.7573 121.264 43.468C120.798 43.1693 120.429 42.7587 120.158 42.236C119.897 41.704 119.766 41.0927 119.766 40.402C119.766 39.6833 119.897 39.058 120.158 38.526C120.429 37.994 120.798 37.5787 121.264 37.28C121.74 36.9813 122.296 36.832 122.93 36.832C123.509 36.832 124.013 36.9813 124.442 37.28C124.881 37.5787 125.217 37.9987 125.45 38.54C125.693 39.072 125.814 39.6973 125.814 40.416C125.814 41.1067 125.693 41.718 125.45 42.25C125.217 42.7727 124.881 43.1787 124.442 43.468C124.013 43.7573 123.509 43.902 122.93 43.902ZM123.266 42.782C123.658 42.782 123.999 42.6793 124.288 42.474C124.578 42.2593 124.806 41.9747 124.974 41.62C125.142 41.256 125.226 40.8407 125.226 40.374C125.226 39.9073 125.142 39.4967 124.974 39.142C124.806 38.7873 124.573 38.512 124.274 38.316C123.985 38.1107 123.644 38.008 123.252 38.008C122.842 38.008 122.478 38.1107 122.16 38.316C121.852 38.512 121.61 38.7873 121.432 39.142C121.255 39.4967 121.166 39.9073 121.166 40.374C121.166 40.8407 121.255 41.256 121.432 41.62C121.619 41.9747 121.866 42.2593 122.174 42.474C122.492 42.6793 122.856 42.782 123.266 42.782ZM128.43 44V37H129.676L129.76 38.288V44H128.43ZM133.274 44V40.416H134.604V44H133.274ZM133.274 40.416C133.274 39.7813 133.199 39.3007 133.05 38.974C132.91 38.638 132.709 38.4047 132.448 38.274C132.196 38.1433 131.902 38.0733 131.566 38.064C130.997 38.064 130.553 38.2647 130.236 38.666C129.919 39.0673 129.76 39.632 129.76 40.36H129.186C129.186 39.6227 129.293 38.9927 129.508 38.47C129.732 37.938 130.045 37.532 130.446 37.252C130.857 36.972 131.342 36.832 131.902 36.832C132.453 36.832 132.929 36.944 133.33 37.168C133.741 37.392 134.053 37.742 134.268 38.218C134.492 38.6847 134.604 39.3007 134.604 40.066V40.416H133.274ZM143.181 44.168C142.659 44.168 142.183 44.1073 141.753 43.986C141.333 43.8647 140.965 43.7013 140.647 43.496C140.339 43.2813 140.083 43.0433 139.877 42.782C139.672 42.5207 139.527 42.2453 139.443 41.956L140.773 41.522C140.913 41.9047 141.179 42.236 141.571 42.516C141.963 42.796 142.444 42.9407 143.013 42.95C143.704 42.95 144.245 42.8147 144.637 42.544C145.039 42.264 145.239 41.8953 145.239 41.438C145.239 41.018 145.067 40.6773 144.721 40.416C144.376 40.1453 143.919 39.94 143.349 39.8L142.215 39.506C141.767 39.3847 141.357 39.212 140.983 38.988C140.619 38.764 140.33 38.4793 140.115 38.134C139.901 37.7887 139.793 37.3733 139.793 36.888C139.793 35.992 140.083 35.292 140.661 34.788C141.249 34.284 142.094 34.032 143.195 34.032C143.83 34.032 144.381 34.1347 144.847 34.34C145.314 34.536 145.697 34.7973 145.995 35.124C146.303 35.4507 146.523 35.81 146.653 36.202L145.323 36.65C145.165 36.23 144.894 35.894 144.511 35.642C144.129 35.3807 143.657 35.25 143.097 35.25C142.509 35.25 142.043 35.39 141.697 35.67C141.361 35.95 141.193 36.3327 141.193 36.818C141.193 37.2287 141.324 37.546 141.585 37.77C141.856 37.9847 142.215 38.148 142.663 38.26L143.797 38.54C144.712 38.764 145.417 39.1373 145.911 39.66C146.415 40.1733 146.667 40.738 146.667 41.354C146.667 41.886 146.532 42.3667 146.261 42.796C146 43.216 145.608 43.552 145.085 43.804C144.572 44.0467 143.937 44.168 143.181 44.168ZM149.122 46.968C148.916 46.968 148.688 46.9307 148.436 46.856C148.193 46.7813 147.941 46.6833 147.68 46.562L148.17 45.47C148.375 45.5633 148.552 45.6333 148.702 45.68C148.86 45.7267 148.986 45.75 149.08 45.75C149.313 45.75 149.509 45.6847 149.668 45.554C149.836 45.4233 149.971 45.2413 150.074 45.008L150.886 43.09L153.378 37H154.806L151.488 44.868C151.31 45.2973 151.124 45.6707 150.928 45.988C150.732 46.3053 150.489 46.548 150.2 46.716C149.92 46.884 149.56 46.968 149.122 46.968ZM150.522 44L147.456 37H148.87L151.404 43.076L151.81 44H150.522ZM158.334 44.168C157.84 44.168 157.396 44.0933 157.004 43.944C156.622 43.7947 156.295 43.594 156.024 43.342C155.763 43.09 155.567 42.8053 155.436 42.488L156.584 41.984C156.734 42.2733 156.958 42.5113 157.256 42.698C157.555 42.8847 157.886 42.978 158.25 42.978C158.652 42.978 158.983 42.9033 159.244 42.754C159.506 42.6047 159.636 42.3947 159.636 42.124C159.636 41.8627 159.538 41.6573 159.342 41.508C159.146 41.3587 158.862 41.2373 158.488 41.144L157.83 40.976C157.177 40.7987 156.668 40.5327 156.304 40.178C155.95 39.8233 155.772 39.422 155.772 38.974C155.772 38.2927 155.992 37.7653 156.43 37.392C156.869 37.0187 157.518 36.832 158.376 36.832C158.796 36.832 159.179 36.8927 159.524 37.014C159.879 37.1353 160.178 37.308 160.42 37.532C160.672 37.756 160.85 38.022 160.952 38.33L159.832 38.834C159.72 38.554 159.529 38.3487 159.258 38.218C158.988 38.078 158.67 38.008 158.306 38.008C157.933 38.008 157.639 38.092 157.424 38.26C157.21 38.4187 157.102 38.6427 157.102 38.932C157.102 39.0907 157.191 39.2447 157.368 39.394C157.555 39.534 157.826 39.6507 158.18 39.744L158.936 39.926C159.394 40.038 159.772 40.2107 160.07 40.444C160.369 40.668 160.593 40.9247 160.742 41.214C160.892 41.494 160.966 41.788 160.966 42.096C160.966 42.516 160.85 42.8847 160.616 43.202C160.392 43.51 160.08 43.748 159.678 43.916C159.286 44.084 158.838 44.168 158.334 44.168ZM165.052 44.168C164.352 44.168 163.81 43.9907 163.428 43.636C163.045 43.272 162.854 42.754 162.854 42.082V34.816H164.184V41.886C164.184 42.2313 164.268 42.4973 164.436 42.684C164.613 42.8613 164.865 42.95 165.192 42.95C165.285 42.95 165.388 42.9313 165.5 42.894C165.612 42.8567 165.747 42.782 165.906 42.67L166.41 43.706C166.167 43.8647 165.934 43.9813 165.71 44.056C165.495 44.1307 165.276 44.168 165.052 44.168ZM161.664 38.148V37H166.172V38.148H161.664ZM170.762 44.168C170.081 44.168 169.479 44.014 168.956 43.706C168.433 43.3887 168.023 42.9547 167.724 42.404C167.425 41.8533 167.276 41.2187 167.276 40.5C167.276 39.7813 167.425 39.1467 167.724 38.596C168.023 38.0453 168.433 37.616 168.956 37.308C169.488 36.9907 170.095 36.832 170.776 36.832C171.42 36.832 171.985 36.9953 172.47 37.322C172.955 37.6393 173.333 38.0967 173.604 38.694C173.884 39.282 174.024 39.9773 174.024 40.78H168.368L168.62 40.57C168.62 41.0647 168.718 41.494 168.914 41.858C169.11 42.222 169.376 42.502 169.712 42.698C170.048 42.8847 170.431 42.978 170.86 42.978C171.327 42.978 171.714 42.8707 172.022 42.656C172.339 42.432 172.587 42.152 172.764 41.816L173.912 42.348C173.725 42.712 173.483 43.034 173.184 43.314C172.885 43.5847 172.531 43.7947 172.12 43.944C171.719 44.0933 171.266 44.168 170.762 44.168ZM168.704 39.94L168.438 39.73H172.862L172.61 39.94C172.61 39.5293 172.526 39.1793 172.358 38.89C172.19 38.5913 171.966 38.3673 171.686 38.218C171.406 38.0593 171.093 37.98 170.748 37.98C170.412 37.98 170.085 38.0593 169.768 38.218C169.46 38.3673 169.203 38.5867 168.998 38.876C168.802 39.1653 168.704 39.52 168.704 39.94ZM175.338 44V37H176.584L176.64 37.966C176.864 37.5927 177.144 37.3127 177.48 37.126C177.816 36.93 178.203 36.832 178.642 36.832C179.202 36.832 179.678 36.9627 180.07 37.224C180.462 37.476 180.747 37.8633 180.924 38.386C181.129 37.882 181.419 37.4993 181.792 37.238C182.165 36.9673 182.609 36.832 183.122 36.832C183.915 36.832 184.536 37.0933 184.984 37.616C185.432 38.1293 185.651 38.9227 185.642 39.996V44H184.326V40.416C184.326 39.7813 184.256 39.3007 184.116 38.974C183.985 38.638 183.808 38.4047 183.584 38.274C183.36 38.1433 183.099 38.0733 182.8 38.064C182.277 38.064 181.871 38.2647 181.582 38.666C181.302 39.0673 181.162 39.632 181.162 40.36V44H179.832V40.416C179.832 39.7813 179.767 39.3007 179.636 38.974C179.505 38.638 179.323 38.4047 179.09 38.274C178.866 38.1433 178.605 38.0733 178.306 38.064C177.783 38.064 177.377 38.2647 177.088 38.666C176.808 39.0673 176.668 39.632 176.668 40.36V44H175.338Z" fill="#5D6F85"/>
<defs>
<linearGradient id="paint0_linear_778_13880" x1="31.4466" y1="59.041" x2="-6.71257" y2="9.77424" gradientUnits="userSpaceOnUse">
<stop stop-color="#CAC7F9"/>
<stop offset="0.5" stop-color="#5B62DA"/>
</linearGradient>
<clipPath id="clip0_778_13880">
<rect width="17.1008" height="33.3466" fill="white" transform="translate(10 19)"/>
</clipPath>
</defs>
</svg>
